PathFileType	4	(X/Y/Z)	C:\Users\Basilio\Documents\Thesis Gigler\squatting_fais\c3dfiles\038\SLS_front_pre2\markers_experimental.trc
DataRate	CameraRate	NumFrames	NumMarkers	Units	OrigDataRate	OrigDataStartFrame	OrigNumFrames
200.000000	200.000000	4	61	mm	200.000000	342	1369
Frame#	Time	FHD			LBHD			RBHD			C7			T10			CLAV			LSHO			LUUPA			LMUPA			LDUPA			LLEP			LMEP			LUL			LRFIN			RSHO			RUPA1			RMUPA			RDUPA			RLEP			RMEP			RRAD			RUL			RUFIN			LASI			RASI			USACR			LSACR			RSACR			LTHI1			LTHI2			LTHI3			LTHI4			LLFC			LMFC			LTIB1			LTIB2			LTIB3			LTIB4			LLMAL			LMMAL			LHEE			LMT1			LMT2			LMT5			RTHI			RTHI2			RTHI3			RTHI4			RLFC			RMFC			RTIB1			RTIB2			RTIB3			RTIB4			RLMAL			RMMAL			RHEE			RMT1			RMT2			RMT5			LRAD			
		X1	Y1	Z1	X2	Y2	Z2	X3	Y3	Z3	X4	Y4	Z4	X5	Y5	Z5	X6	Y6	Z6	X7	Y7	Z7	X8	Y8	Z8	X9	Y9	Z9	X10	Y10	Z10	X11	Y11	Z11	X12	Y12	Z12	X13	Y13	Z13	X14	Y14	Z14	X15	Y15	Z15	X16	Y16	Z16	X17	Y17	Z17	X18	Y18	Z18	X19	Y19	Z19	X20	Y20	Z20	X21	Y21	Z21	X22	Y22	Z22	X23	Y23	Z23	X24	Y24	Z24	X25	Y25	Z25	X26	Y26	Z26	X27	Y27	Z27	X28	Y28	Z28	X29	Y29	Z29	X30	Y30	Z30	X31	Y31	Z31	X32	Y32	Z32	X33	Y33	Z33	X34	Y34	Z34	X35	Y35	Z35	X36	Y36	Z36	X37	Y37	Z37	X38	Y38	Z38	X39	Y39	Z39	X40	Y40	Z40	X41	Y41	Z41	X42	Y42	Z42	X43	Y43	Z43	X44	Y44	Z44	X45	Y45	Z45	X46	Y46	Z46	X47	Y47	Z47	X48	Y48	Z48	X49	Y49	Z49	X50	Y50	Z50	X51	Y51	Z51	X52	Y52	Z52	X53	Y53	Z53	X54	Y54	Z54	X55	Y55	Z55	X56	Y56	Z56	X57	Y57	Z57	X58	Y58	Z58	X59	Y59	Z59	X60	Y60	Z60	X61	Y61	Z61	

343	1.71	-265.2611999511719	1757.434204101563	-1069.226440429688	-420.4475097656251	1715.833862304688	-1137.322387695313	-419.761444091797	1700.53955078125	-992.5440673828127	-471.6531066894532	1521.397827148438	-1068.464965820313	-421.1905822753907	1242.662353515625	-1059.828369140625	-326.5351867675782	1519.740844726563	-1074.609741210938	-396.5797424316407	1550.890258789063	-1218.434936523438	-229.2281799316407	1480.561889648438	-1343.368896484375	-201.6115722656251	1515.208251953125	-1318.578491210938	-160.169662475586	1486.610229492188	-1350.858642578125	-99.27668762207034	1488.196533203125	-1350.787475585938	-91.45564270019533	1414.740234375	-1324.770263671875	195.6532745361329	1489.214965820313	-1321.052856445313	260.1451416015626	1503.84130859375	-1231.800659179688	-386.1345214843751	1537.158935546875	-928.194030761719	-230.7766418457032	1491.423706054688	-806.7854003906252	-193.9049530029297	1506.707397460938	-835.4397583007815	-163.6825866699219	1484.7548828125	-787.2825927734377	-91.4011688232422	1480.84130859375	-774.5955200195315	-86.05645751953126	1405.326538085938	-798.8673095703127	188.4220275878907	1473.109375	-841.422790527344	195.7449340820313	1485.312255859375	-772.3874511718752	269.4412841796876	1505.1259765625	-842.5776977539065	-219.9270477294922	1068.772338867188	-1149.857666015625	-259.7182312011719	1098.2197265625	-902.8129882812502	-410.3138732910157	1111.516235351563	-1048.961059570313	-417.7860717773439	1080.204467773438	-1075.337524414063	-423.9466552734376	1082.261962890625	-1019.025085449219	-253.7278289794922	741.1744384765626	-1180.029418945313	-226.8445587158204	661.9981689453126	-1163.901489257813	-181.7556457519532	667.4557495117189	-1140.166625976563	-258.0014953613282	614.7836303710939	-1145.895874023438	-256.3114929199219	551.5593872070314	-1133.488525390625	-257.6833496093751	549.4525756835939	-1013.105041503906	-243.7264099121094	364.5596313476563	-1048.674682617188	-283.6528625488282	321.9972229003907	-1114.130493164063	-248.9396209716797	315.6455688476563	-1081.583618164063	-272.4364013671876	240.7634277343751	-1049.998413085938	-365.1795349121094	114.1278305053711	-1069.7158203125	-329.7231140136719	127.38037109375	-997.5419921875002	-417.1802978515626	93.49008941650392	-1015.533081054688	-215.8859252929688	43.34855651855469	-1015.237731933594	-207.6829833984376	48.93621826171876	-1065.819702148438	-256.2245788574219	36.92624282836915	-1109.395141601563	-213.5261535644532	844.4221191406252	-826.824401855469	-154.5146789550782	812.8086547851565	-823.779235839844	-126.2861328125	829.0825195312502	-831.4844360351565	-143.7472534179688	727.2307739257814	-833.4993896484377	-67.21526336669923	613.8969116210939	-833.7100219726565	-66.21316528320314	603.8970336914064	-953.8544921875002	55.96576309204103	478.2979125976564	-846.4395751953127	25.56722640991212	373.6524658203126	-802.9275512695315	65.48644256591798	398.1440734863282	-813.385681152344	100.2591323852539	357.8799133300782	-838.5130004882815	104.9211349487305	220.0877838134766	-797.9252929687502	129.0263214111328	239.5850372314454	-878.1226806640627	80.78006744384767	146.3735504150391	-859.2393798828127	269.2561035156251	256.8562622070313	-848.3504028320315	262.8387451171876	260.7769775390626	-801.2043457031252	237.9322052001954	220.8900146484376	-757.9985351562501	nan	nan	nan	
344	1.715	-265.4230651855469	1757.494018554688	-1069.220458984375	-420.6474609375001	1715.772705078125	-1137.28271484375	-420.0188598632814	1700.49267578125	-992.5359497070315	-471.7977600097657	1521.302978515625	-1068.4765625	-421.269012451172	1242.623657226563	-1059.858642578125	-326.6609802246094	1519.75537109375	-1074.587036132813	-396.743621826172	1550.847045898438	-1218.461547851563	-229.4263153076172	1480.583129882813	-1343.406982421875	-201.7782135009766	1515.273681640625	-1318.56884765625	-160.34228515625	1486.735107421875	-1350.928466796875	-99.44703674316409	1488.309936523438	-1350.880981445313	-91.59560394287111	1414.797729492188	-1324.802612304688	195.3764038085938	1489.438720703125	-1321.162109375	259.9021301269532	1504.135864257813	-1231.903198242188	-386.2512817382814	1537.126586914063	-928.1420898437502	-230.7448730468751	1491.6318359375	-806.6293945312502	-194.0521545410157	1506.697509765625	-835.4317626953127	-163.8287658691407	1484.849731445313	-787.383972167969	-91.51807403564455	1480.886840820313	-774.6311035156252	-86.12510681152345	1405.361694335938	-798.8708496093752	188.1994781494141	1473.247192382813	-841.5518798828127	195.5851440429688	1485.505981445313	-772.5186767578127	269.3131713867188	1505.26806640625	-842.7615356445315	-220.1321563720704	1068.413208007813	-1150.025512695313	-259.6807556152344	1098.240600585938	-902.8808593750002	-410.3484802246095	1111.47705078125	-1049.025512695313	-417.8310852050782	1080.113891601563	-1075.343139648438	-423.9876708984376	1082.266845703125	-1019.032592773438	-253.7636871337891	741.1067504882814	-1180.07275390625	-226.782211303711	662.0233154296876	-1163.850341796875	-181.6369934082032	667.4089355468751	-1140.200805664063	-258.0123596191407	614.7662353515626	-1145.89599609375	-256.2249145507813	551.5371093750001	-1133.429931640625	-257.5438842773438	549.4049682617189	-1013.065551757813	-243.6649322509766	364.5525817871094	-1048.621704101563	-283.5465698242188	321.9751281738282	-1114.099365234375	-248.9889678955079	315.6261596679688	-1081.552978515625	-272.3648071289063	240.7303161621094	-1049.93701171875	-365.0943603515626	114.1511993408203	-1069.732421875	-329.7147216796876	127.3862686157227	-997.4769287109377	-417.1980590820314	93.46900177001955	-1015.491149902344	-215.8565826416016	43.2185401916504	-1015.233520507813	-207.6692352294922	48.93035888671876	-1065.810302734375	-256.2323913574219	36.97705078125001	-1109.334228515625	-213.264877319336	844.3801269531252	-826.914245605469	-154.0206298828125	812.3557128906252	-824.083923339844	-125.9142990112305	829.2293701171877	-831.8295898437502	-143.1728668212891	727.0820312500001	-833.7292480468752	-66.77601623535158	614.3092651367189	-834.0740966796877	-65.84927368164064	604.1698608398439	-954.2591552734377	56.61536407470705	478.4689025878907	-847.306335449219	26.3330478668213	373.9527282714844	-803.6552734375002	65.9347381591797	398.3403930664064	-813.935485839844	100.6760864257813	358.1100769042969	-838.9676513671877	105.2156219482422	220.6883239746094	-798.466979980469	129.4430694580078	239.6795654296876	-878.6875610351565	81.52674865722658	146.4714508056641	-860.088073730469	269.8254699707032	257.1644592285157	-849.1021118164065	263.4674377441407	261.1202697753907	-802.1029052734377	238.5046691894532	221.0964965820313	-758.9100341796876	nan	nan	nan	
345	1.72	-265.6648559570313	1757.454223632813	-1069.162963867188	-420.794891357422	1715.78271484375	-1137.2939453125	-420.2157592773439	1700.421997070313	-992.622741699219	-471.9110717773439	1521.244018554688	-1068.492065429688	-421.2718200683595	1242.5	-1059.93310546875	-326.7659912109376	1519.823974609375	-1074.582641601563	-396.8965148925782	1550.84814453125	-1218.447265625	-229.6404266357422	1480.633544921875	-1343.471557617188	-201.8886260986329	1515.3740234375	-1318.619384765625	-160.4851837158203	1486.823852539063	-1350.970336914063	-99.60244750976565	1488.391723632813	-1350.939086914063	-91.78981781005861	1415.07666015625	-1324.890625	195.2659301757813	1489.603149414063	-1321.255126953125	259.7804870605469	1504.41748046875	-1232.05712890625	-386.4682922363282	1537.1044921875	-928.1282958984377	-231.1176300048829	1491.361083984375	-806.9129638671877	-194.1566162109376	1506.71826171875	-835.4856567382815	-163.9571533203125	1484.8427734375	-787.401062011719	-91.60869598388673	1480.944213867188	-774.7089843750002	-86.25216674804689	1405.481811523438	-798.8701171875002	187.9846801757813	1473.408325195313	-841.6929321289065	195.4676818847657	1485.678100585938	-772.6936645507815	269.1703796386719	1505.454833984375	-842.9114990234377	-220.0181427001954	1068.71630859375	-1150.070434570313	-259.7669677734376	1098.228759765625	-903.0300292968752	-410.393035888672	1111.447875976563	-1049.063720703125	-417.8491516113282	1080.06982421875	-1075.343383789063	-424.0225524902345	1082.194702148438	-1019.025695800781	-253.7109832763672	741.0852050781251	-1180.029663085938	-226.7125244140626	661.9946899414064	-1163.808837890625	-181.5636138916016	667.3295288085939	-1140.19140625	-257.9276733398438	614.7455444335939	-1145.807250976563	-256.1470947265626	551.4954223632814	-1133.398071289063	-257.4877014160157	549.4200439453126	-1013.0029296875	-243.6006011962891	364.5051574707032	-1048.524169921875	-283.5127258300782	321.9617004394532	-1114.0302734375	-248.8821411132813	315.6186523437501	-1081.449951171875	-272.3269958496094	240.7872314453126	-1049.724243164063	-365.0349731445313	114.1278686523438	-1069.623779296875	-329.6933898925782	127.3217010498047	-997.445983886719	-417.1917724609376	93.48480224609376	-1015.461853027344	-215.8332061767579	43.24032211303712	-1015.154968261719	-207.6611785888672	48.99566650390626	-1065.721435546875	-256.2409973144532	37.01131057739259	-1109.333984375	-213.0454101562501	844.547546386719	-827.2287597656252	-153.9043426513672	812.7854614257815	-824.3966064453127	-125.5165176391602	829.3565063476565	-832.2481079101565	-142.8329772949219	727.3685913085939	-834.132019042969	-66.23840332031251	614.6049194335939	-834.4580078125002	-65.53089141845705	604.3801269531251	-954.7263793945315	57.08342742919923	478.8653869628907	-847.6467895507815	26.84107017517091	374.1848144531251	-804.1857910156252	66.28487396240236	398.4273681640626	-814.4366455078127	100.9654769897461	358.0700988769532	-840.1187133789065	105.6527099609375	221.0067443847657	-798.9382324218752	129.8468017578125	239.9602050781251	-879.3904418945315	81.92616271972658	146.7337341308594	-860.535583496094	270.1399230957032	257.3668212890626	-849.7525024414065	263.7785034179688	261.4269409179688	-802.8704223632815	239.1033325195313	221.2649383544922	-759.5649414062501	nan	nan	nan	
346	1.725	-265.8981323242188	1757.387329101563	-1069.108520507813	-420.9240112304689	1715.695556640625	-1137.286254882813	-420.3589782714845	1700.383422851563	-992.5942382812502	-472.0835876464845	1521.13232421875	-1068.444213867188	-421.4512939453126	1242.459106445313	-1059.972045898438	-326.9659423828126	1519.7490234375	-1074.560546875	-397.0877380371095	1550.760498046875	-1218.4462890625	-229.7145385742188	1480.745849609375	-1343.510009765625	-202.1355895996094	1515.385375976563	-1318.659057617188	-160.6137847900391	1486.883544921875	-1351.039428710938	-99.87843322753909	1488.461791992188	-1351.035766601563	-91.91381835937501	1415.206298828125	-1324.952514648438	195.1234130859376	1489.801391601563	-1321.349975585938	259.5908203125001	1504.642456054688	-1232.133666992188	-386.6573486328126	1537.15283203125	-928.0845336914065	-231.2700653076172	1491.329711914063	-806.9185791015627	-194.2853240966797	1506.798583984375	-835.524108886719	-164.0821228027344	1484.930419921875	-787.3911743164065	-91.67852783203126	1481.0302734375	-774.7588500976565	-86.63933563232423	1405.010375976563	-799.050964355469	187.9135437011719	1473.509887695313	-841.8747558593752	195.4433746337891	1485.79345703125	-772.8123168945315	269.0335083007813	1505.58544921875	-843.0444335937502	-220.0787811279297	1068.696166992188	-1150.183959960938	-259.7178649902344	1098.255249023438	-903.0832519531252	-410.5359191894532	1111.471923828125	-1049.107177734375	-417.8185119628907	1080.022216796875	-1075.31884765625	-424.0423889160157	1082.19482421875	-1019.049011230469	-253.6267700195313	741.0267333984376	-1180.006713867188	-226.6289672851563	662.0006713867189	-1163.741943359375	-181.4913482666016	667.3276977539064	-1140.138305664063	-257.8671264648438	614.6873779296876	-1145.690185546875	-256.0695495605469	551.5144653320314	-1133.255126953125	-257.3542785644532	549.4321289062501	-1012.93701171875	-243.5224304199219	364.5297241210938	-1048.4013671875	-283.4843750000001	321.9833374023438	-1114.015991210938	-248.8353271484376	315.6270141601563	-1081.339721679688	-272.2703857421876	240.7843322753907	-1049.682739257813	-364.9429931640626	114.1009216308594	-1069.595703125	-329.7037353515626	127.3653335571289	-997.3577270507815	-417.1699218750001	93.49356842041017	-1015.434753417969	-215.7900543212891	43.18040466308594	-1015.141052246094	-207.6332092285157	49.09276199340822	-1065.661254882813	-256.2286987304688	37.01848602294923	-1109.311157226563	-212.8410949707032	844.6494750976565	-827.5031738281252	-153.349365234375	812.6008300781252	-824.682067871094	-125.2642135620117	829.5747680664065	-832.612243652344	-142.5487976074219	727.4766845703126	-834.4275512695315	-65.9027557373047	614.8632812500001	-834.8226318359377	-65.25382232666017	604.6071166992189	-955.197448730469	57.4150733947754	479.1253356933595	-848.106140136719	27.09546470642091	374.3785705566407	-804.471374511719	66.8532180786133	398.6542053222657	-815.1189575195315	101.2909774780274	358.2662353515626	-840.7362060546877	106.1852493286133	221.2249908447266	-799.4892578125002	130.3020477294922	240.1581268310547	-880.1214599609377	82.46176910400392	147.0138244628907	-861.0581665039065	270.6148681640626	257.6538696289063	-850.6732177734377	264.1553955078126	261.6852722167969	-803.5740966796877	239.6177673339844	221.6198425292969	-760.3301391601564	nan	nan	nan	
